<?xml version='1.0' encoding='iso-8859-1'?>
<!DOCTYPE svg PUBLIC '-//W3C//DTD SVG 1.1//EN' 'http://www.w3.org/Graphics/SVG/1.1/DTD/svg11.dtd'>
<svg version="1.1" xmlns="http://www.w3.org/2000/svg" viewBox="0 0 297 297" xmlns:xlink="http://www.w3.org/1999/xlink" enable-background="new 0 0 297 297">
  <g>
    <path d="m112.591,48.923h-3.129v-22.732c0-5.458-4.425-9.884-9.884-9.884h-32.616c-5.458,0-9.884,4.425-9.884,9.884v22.732h-3.13c-16.259,0-29.486,13.228-29.486,29.486v208.707c0,5.458 4.425,9.884 9.884,9.884h97.847c5.458,0 9.884-4.425 9.884-9.884v-208.706c0-16.259-13.228-29.487-29.486-29.487zm-35.745-12.848h12.849v12.849h-12.849v-12.849zm-22.897,32.616h58.642c5.36,0 9.719,4.36 9.719,9.719v67.749h-78.08v-67.749c7.10543e-15-5.36 4.36-9.719 9.719-9.719zm-9.719,208.542v-110.084h78.08v110.084h-78.08z"/>
    <path d="m164.806,16.308c-2.599,0-5.149,1.057-6.988,2.896-1.839,1.839-2.896,4.389-2.896,6.988s1.057,5.149 2.896,6.987c1.839,1.839 4.389,2.897 6.988,2.897 2.599,0 5.149-1.058 6.987-2.897 1.839-1.838 2.897-4.388 2.897-6.987s-1.058-5.149-2.897-6.988c-1.837-1.839-4.387-2.896-6.987-2.896z"/>
    <path d="m203.639,8.341c-5.347,1.078-8.827,6.277-7.749,11.633 0.938,4.695 5.06,7.946 9.675,7.946 0.643,0 1.295-0.06 1.957-0.188 5.347-1.077 8.816-6.276 7.749-11.632-1.067-5.356-6.275-8.826-11.632-7.759z"/>
    <path d="m246.345,19.767c2.609,0 5.149-1.058 6.987-2.897 1.848-1.838 2.897-4.388 2.897-6.987s-1.048-5.149-2.897-6.988c-1.837-1.838-4.378-2.895-6.987-2.895-2.599,0-5.149,1.057-6.988,2.896s-2.896,4.389-2.896,6.988 1.057,5.149 2.896,6.987c1.839,1.838 4.389,2.896 6.988,2.896z"/>
    <path d="m164.806,65.231c-2.599,0-5.149,1.057-6.988,2.896s-2.896,4.389-2.896,6.988 1.057,5.149 2.896,6.987c1.839,1.839 4.389,2.897 6.988,2.897 2.599,0 5.149-1.058 6.987-2.897 1.839-1.838 2.897-4.388 2.897-6.987s-1.058-5.149-2.897-6.988c-1.837-1.839-4.387-2.896-6.987-2.896z"/>
    <path d="m207.523,73.572c-5.357-1.068-10.566,2.402-11.632,7.759-1.078,5.347 2.401,10.555 7.749,11.632 0.652,0.128 1.304,0.188 1.947,0.188 4.616,0 8.747-3.252 9.686-7.946 1.066-5.356-2.403-10.554-7.75-11.633z"/>
    <path d="m246.345,81.539c-2.599,0-5.149,1.057-6.988,2.896-1.839,1.839-2.896,4.389-2.896,6.988s1.057,5.149 2.896,6.987c1.839,1.839 4.389,2.897 6.988,2.897s5.149-1.058 6.987-2.897c1.848-1.838 2.897-4.388 2.897-6.987s-1.048-5.149-2.897-6.988c-1.837-1.839-4.387-2.896-6.987-2.896z"/>
    <path d="m204.409,57.64c1.848-1.838 2.897-4.388 2.897-6.987 0-2.599-1.048-5.149-2.897-6.988-1.838-1.839-4.388-2.896-6.987-2.896s-5.149,1.057-6.988,2.896-2.896,4.389-2.896,6.988c0,2.599 1.057,5.149 2.896,6.987 1.839,1.839 4.389,2.897 6.988,2.897s5.149-1.058 6.987-2.897z"/>
    <path d="m239.921,50.653c0-5.456-4.419-9.884-9.884-9.884-5.456,0-9.884,4.427-9.884,9.884 0,5.455 4.427,9.884 9.884,9.884 5.466,0 9.884-4.429 9.884-9.884z"/>
    <path d="m269.64,43.665c-1.838-1.839-4.388-2.896-6.987-2.896s-5.149,1.057-6.988,2.896c-1.839,1.839-2.896,4.389-2.896,6.988 0,2.599 1.057,5.149 2.896,6.987 1.839,1.839 4.389,2.897 6.988,2.897s5.149-1.058 6.987-2.897c1.848-1.838 2.897-4.388 2.897-6.987 0-2.599-1.048-5.149-2.897-6.988z"/>
  </g>
</svg>
