<?xml version="1.0" encoding="iso-8859-1"?>
<!-- Generator: Adobe Illustrator 19.0.0, SVG Export Plug-In . SVG Version: 6.00 Build 0)  -->
<svg version="1.1" id="Layer_1" xmlns="http://www.w3.org/2000/svg" xmlns:xlink="http://www.w3.org/1999/xlink" x="0px" y="0px"
	 viewBox="0 0 512 512" style="enable-background:new 0 0 512 512;" xml:space="preserve">
<g>
	<g>
		<path d="M18.641,487.325h-0.135c-5.678,0-10.281,4.603-10.281,10.281c0,5.678,4.603,10.281,10.281,10.281h0.135
			c5.678,0,10.281-4.603,10.281-10.281C28.922,491.928,24.319,487.325,18.641,487.325z"/>
	</g>
</g>
<g>
	<g>
		<path d="M501.719,487.325h-0.135c-5.678,0-10.281,4.603-10.281,10.281c0,5.678,4.603,10.281,10.281,10.281h0.135
			c5.678,0,10.281-4.603,10.281-10.281C512,491.928,507.397,487.325,501.719,487.325z"/>
	</g>
</g>
<g>
	<g>
		<path d="M321.253,212.819c-6.337,0-11.492,5.155-11.492,11.492c0.001,6.336,5.156,11.491,11.492,11.491
			c6.337,0,11.492-5.155,11.492-11.491C332.746,217.974,327.591,212.819,321.253,212.819z"/>
	</g>
</g>
<g>
	<g>
		<path d="M246.265,212.819c-6.337,0-11.492,5.155-11.492,11.492c0,6.336,5.155,11.491,11.492,11.491s11.492-5.155,11.492-11.491
			C257.756,217.974,252.601,212.819,246.265,212.819z"/>
	</g>
</g>
<g>
	<g>
		<path d="M293.848,261.259h-20.092c-5.678,0-10.281,4.603-10.281,10.281c0,11.208,9.119,20.328,20.327,20.328
			c11.209,0,20.328-9.118,20.328-20.328C304.129,265.862,299.526,261.259,293.848,261.259z"/>
	</g>
</g>
<g>
	<g>
		<path d="M313.359,443.116h-0.135c-5.678,0-10.281,4.603-10.281,10.281s4.603,10.281,10.281,10.281h0.135
			c5.678,0,10.281-4.603,10.281-10.281S319.038,443.116,313.359,443.116z"/>
	</g>
</g>
<g>
	<g>
		<path d="M385.193,443.116H346.62c-5.678,0-10.281,4.603-10.281,10.281s4.603,10.281,10.281,10.281h38.573
			c5.678,0,10.281-4.603,10.281-10.281S390.871,443.116,385.193,443.116z"/>
	</g>
</g>
<g>
	<g>
		<path d="M254.293,443.116h-0.135c-5.678,0-10.281,4.603-10.281,10.281s4.603,10.281,10.281,10.281h0.135
			c5.678,0,10.281-4.603,10.281-10.281S259.972,443.116,254.293,443.116z"/>
	</g>
</g>
<g>
	<g>
		<path d="M485.955,181.398h-37.656c-5.678,0-10.281,4.603-10.281,10.281v22.888c0,5.678,4.603,10.281,10.281,10.281h16.428v2.72
			h-16.464c-5.678,0-10.281,4.603-10.281,10.281c0,5.678,4.603,10.281,10.281,10.281h16.464v2.72h-16.463
			c-5.678,0-10.281,4.603-10.281,10.281c0,5.678,4.603,10.281,10.281,10.281h16.463v2.72h-16.464
			c-5.677,0-10.281,4.603-10.281,10.281c0,5.677,4.603,10.281,10.281,10.281h16.464v2.72h-16.464
			c-5.678,0-10.281,4.604-10.281,10.281c0,5.678,4.604,10.281,10.281,10.281h16.464v2.72h-16.464
			c-5.678,0-10.281,4.603-10.281,10.281s4.603,10.281,10.281,10.281h16.464v2.72h-16.428c-5.678,0-10.281,4.603-10.281,10.281
			v23.086c0,5.678,4.603,10.281,10.281,10.281h37.656c6.957,0,13.498-2.709,18.418-7.629c4.919-4.92,7.628-11.459,7.628-18.417
			V207.443C512,193.082,500.315,181.398,485.955,181.398z M489.832,365.462c-1.035,1.035-2.413,1.606-3.877,1.606H458.58v-2.524
			h8.012c10.31,0,18.697-8.388,18.697-18.698V222.984c0-10.31-8.388-18.698-18.698-18.698h-8.012v-2.327h27.375
			c3.023,0,5.483,2.46,5.483,5.483v154.143h0.001C491.438,363.05,490.867,364.427,489.832,365.462z"/>
	</g>
</g>
<g>
	<g>
		<path d="M134.452,305.232c-9.486,0-18.04,4.054-24.032,10.515l-15.432-32.669l28.116-59.523
			c2.425-5.134,0.229-11.262-4.905-13.687c-5.134-2.425-11.262-0.229-13.687,4.905l-20.894,44.234l-20.892-44.233
			c-2.425-5.134-8.554-7.333-13.687-4.905c-5.134,2.425-7.33,8.553-4.905,13.687c0,0,13.741,29.084,28.118,59.517l-15.433,32.672
			c-5.992-6.46-14.546-10.513-24.031-10.513C14.708,305.232,0,319.939,0,338.019s14.708,32.788,32.788,32.788
			c13.289,0,24.749-7.951,29.892-19.343c0.013-0.028,0.032-0.052,0.045-0.08l20.896-44.24
			c11.455,24.246,20.944,44.331,20.951,44.347c5.15,11.377,16.601,19.317,29.88,19.317c18.078,0,32.788-14.708,32.788-32.788
			S152.532,305.232,134.452,305.232z M32.788,350.244c-6.741,0-12.225-5.484-12.225-12.225c0-6.74,5.484-12.224,12.225-12.224
			s12.225,5.484,12.225,12.224C45.012,344.76,39.528,350.244,32.788,350.244z M134.452,350.244c-6.74,0-12.224-5.484-12.224-12.225
			c0-6.74,5.484-12.224,12.224-12.224c6.741,0,12.225,5.484,12.225,12.224C146.678,344.76,141.194,350.244,134.452,350.244z"/>
	</g>
</g>
<g>
	<g>
		<path d="M468.323,487.325h-33.392V417.81c0-20.04-12.095-39.076-29.411-46.291l-66.168-27.569c-2.352-0.98-3.873-3.26-3.873-5.81
			v-16.01l26.874-15.409c0.187-0.107,0.371-0.221,0.552-0.34c2.376-1.569,4.599-3.363,6.67-5.335h47.839
			c5.678,0,10.281-4.603,10.281-10.281V143.036c0-76.603-62.321-138.924-138.924-138.924h-10.024
			c-76.603,0-138.924,62.321-138.924,138.924v147.728c0,5.678,4.603,10.281,10.281,10.281h47.293c0.129,0,0.252-0.014,0.379-0.02
			c2.071,1.984,4.294,3.784,6.671,5.354c0.184,0.121,0.372,0.236,0.563,0.346l27.028,15.452v15.96c0,2.549-1.521,4.829-3.873,5.81
			l-66.168,27.57c-17.316,7.216-29.41,26.251-29.41,46.29v69.517H51.902c-5.678,0-10.281,4.603-10.281,10.281
			c0,5.678,4.603,10.281,10.281,10.281h416.42c5.678,0,10.281-4.603,10.281-10.281C478.604,491.928,474.001,487.325,468.323,487.325
			z M191.229,159.834v-0.001c-5.678,0-10.281,4.603-10.281,10.281v93.209c0,0.261,0.01,0.523,0.03,0.783
			c0.437,5.713,1.661,11.226,3.556,16.378h-24.148V143.036c0-65.265,53.097-118.361,118.361-118.361h10.024
			c65.265,0,118.361,53.097,118.361,118.361v137.447h-24.181c1.902-5.119,3.135-10.59,3.579-16.252
			c0.025-0.286,0.039-0.576,0.04-0.868c0-0.001,0-0.003,0-0.004c0-0.002,0-0.005,0-0.007c0-0.002,0-0.005,0-0.008
			c0-0.001,0-0.004,0-0.005c0-0.005,0-0.009,0-0.014v-93.209c0-5.678-4.603-10.281-10.281-10.281h-62.493l-21.052-37.87
			c-1.783-3.208-5.141-5.222-8.81-5.284c-3.677-0.048-7.094,1.835-8.986,4.98l-22.963,38.174H191.229z M215.527,289.054
			c-7.857-5.319-13.071-15.047-14.017-26.145v-82.513h56.289c3.608,0,6.951-1.891,8.81-4.981l16.798-27.927l15.355,27.621
			c1.814,3.263,5.253,5.287,8.986,5.287h58.26v82.512c-0.934,10.872-6.339,20.836-14.188,26.15l-55.199,31.651
			c-0.188,0.108-0.371,0.221-0.552,0.34c-7.707,5.09-16.909,5.091-24.618,0c-0.184-0.122-0.371-0.237-0.563-0.346L215.527,289.054z
			 M273.478,487.325H153.15V417.81c0-11.588,7.204-23.329,16.757-27.31l65.984-27.493l37.587,37.663V487.325z M250.503,348.537
			c1.352-3.228,2.099-6.744,2.099-10.397v-4.206l7.812,4.466c7.216,4.687,15.281,7.03,23.346,7.03
			c8.068,0,16.135-2.345,23.353-7.034l7.804-4.474v4.219c0,3.653,0.746,7.17,2.099,10.397l-33.257,33.324L250.503,348.537z
			 M414.368,487.325H294.04V400.67l37.586-37.663l65.985,27.493c9.553,3.981,16.757,15.721,16.757,27.31V487.325z"/>
	</g>
</g>
<g>
</g>
<g>
</g>
<g>
</g>
<g>
</g>
<g>
</g>
<g>
</g>
<g>
</g>
<g>
</g>
<g>
</g>
<g>
</g>
<g>
</g>
<g>
</g>
<g>
</g>
<g>
</g>
<g>
</g>
</svg>
